
      <svg data-logo="logo" xmlns="http://www.w3.org/2000/svg" viewBox="0 0 206 43">
        <g id="logogram" transform="translate(0, 1) rotate(0)"><path fill-rule="evenodd" clip-rule="evenodd" d="M0.603516 15.43V31.43H5.60352C6.12878 31.43 6.64893 31.5334 7.13428 31.7345C7.61951 31.9355 8.06055 32.2301 8.43188 32.6016C8.80334 32.973 9.09802 33.414 9.29907 33.8993C9.5 34.3846 9.60352 34.9047 9.60352 35.43V40.43H21.6035L36.6035 25.43V9.42999H31.6035C31.0782 9.42999 30.5581 9.32654 30.0728 9.12552C29.5875 8.9245 29.1465 8.62985 28.7751 8.25842C28.4037 7.88699 28.109 7.44601 27.908 6.96072C27.707 6.47543 27.6035 5.95529 27.6035 5.42999V0.429993H15.6035L0.603516 15.43ZM17.6035 30.43H10.6035V19.43L19.6035 10.43H26.6035V21.43L17.6035 30.43Z" fill="#0004E8"/></g>
        <g id="logotype" transform="translate(43, 8.5)"><path fill="#111111" d="M19.64 26L13.67 26L6.84 0.54L12.53 0.54L15.48 13.06Q15.84 14.64 16.14 16.42Q16.44 18.21 16.73 20.01Q17.02 21.81 17.30 23.47L17.30 23.47L16.37 23.47Q16.68 21.81 16.99 20.01Q17.30 18.21 17.62 16.42Q17.95 14.64 18.34 13.06L18.34 13.06L21.45 0.54L26.87 0.54L29.96 13.06Q30.35 14.64 30.68 16.42Q31.00 18.21 31.32 20.01Q31.63 21.81 31.94 23.47L31.94 23.47L30.99 23.47Q31.28 21.81 31.56 20.01Q31.84 18.21 32.16 16.42Q32.47 14.64 32.81 13.06L32.81 13.06L35.77 0.54L41.48 0.54L34.63 26L28.68 26L25.29 12.98Q24.75 10.81 24.36 8.27Q23.98 5.73 23.50 3.07L23.50 3.07L24.80 3.07Q24.27 5.68 23.94 8.18Q23.60 10.67 23.00 12.98L23.00 12.98L19.64 26ZM50.77 26.38L50.77 26.38Q47.90 26.38 45.80 25.14Q43.70 23.90 42.56 21.68Q41.43 19.47 41.43 16.53L41.43 16.53Q41.43 13.56 42.56 11.35Q43.70 9.13 45.80 7.89Q47.90 6.65 50.77 6.65L50.77 6.65Q53.66 6.65 55.76 7.89Q57.85 9.13 58.99 11.35Q60.12 13.56 60.12 16.53L60.12 16.53Q60.12 19.47 58.99 21.68Q57.85 23.90 55.76 25.14Q53.66 26.38 50.77 26.38ZM50.77 22.34L50.77 22.34Q52.14 22.34 53.06 21.58Q53.99 20.82 54.45 19.50Q54.91 18.17 54.91 16.52L54.91 16.52Q54.91 14.82 54.45 13.51Q53.99 12.19 53.06 11.44Q52.14 10.69 50.77 10.69L50.77 10.69Q49.41 10.69 48.49 11.44Q47.58 12.19 47.12 13.51Q46.65 14.82 46.65 16.52L46.65 16.52Q46.65 18.17 47.12 19.50Q47.58 20.82 48.49 21.58Q49.41 22.34 50.77 22.34ZM66.55 26L61.42 26L61.42 6.89L66.37 6.89L66.37 10.23L66.58 10.23Q67.11 8.45 68.35 7.54Q69.59 6.64 71.19 6.64L71.19 6.64Q71.59 6.64 72.04 6.68Q72.49 6.72 72.85 6.81L72.85 6.81L72.85 11.39Q72.51 11.27 71.86 11.20Q71.21 11.13 70.63 11.13L70.63 11.13Q69.47 11.13 68.53 11.64Q67.59 12.14 67.07 13.04Q66.55 13.93 66.55 15.13L66.55 15.13L66.55 26ZM81.53 16.48L78.04 20.41L78.04 14.24L78.81 14.24L85.07 6.89L91.00 6.89L82.74 16.48L81.53 16.48ZM78.52 26L73.40 26L73.40 0.54L78.52 0.54L78.52 26ZM91.36 26L85.32 26L79.58 17.63L83.02 13.99L91.36 26ZM96.88 26L91.54 26L91.54 0.54L97.35 0.54L105.40 13.42Q106.02 14.41 106.65 15.58Q107.28 16.74 107.94 18.16Q108.60 19.57 109.25 21.35L109.25 21.35L108.72 21.35Q108.60 19.93 108.51 18.33Q108.41 16.72 108.34 15.25Q108.27 13.78 108.27 12.76L108.27 12.76L108.27 0.54L113.61 0.54L113.61 26L107.78 26L100.46 14.31Q99.66 12.99 98.98 11.76Q98.29 10.52 97.55 9.01Q96.81 7.51 95.78 5.44L95.78 5.44L96.45 5.44Q96.55 7.29 96.65 8.98Q96.76 10.67 96.82 12.05Q96.88 13.42 96.88 14.29L96.88 14.29L96.88 26ZM124.46 26.38L124.46 26.38Q121.53 26.38 119.42 25.18Q117.30 23.98 116.16 21.78Q115.02 19.57 115.02 16.55L115.02 16.55Q115.02 13.59 116.15 11.37Q117.28 9.15 119.35 7.90Q121.41 6.65 124.20 6.65L124.20 6.65Q126.08 6.65 127.70 7.25Q129.33 7.85 130.56 9.06Q131.79 10.26 132.48 12.07Q133.17 13.88 133.17 16.34L133.17 16.34L133.17 17.78L117.12 17.78L117.12 14.57L130.66 14.57L128.27 15.42Q128.27 13.93 127.81 12.83Q127.36 11.73 126.46 11.12Q125.57 10.52 124.23 10.52L124.23 10.52Q122.92 10.52 121.99 11.13Q121.06 11.75 120.58 12.80Q120.10 13.85 120.10 15.20L120.10 15.20L120.10 17.47Q120.10 19.13 120.65 20.26Q121.21 21.39 122.21 21.95Q123.21 22.51 124.54 22.51L124.54 22.51Q125.45 22.51 126.18 22.26Q126.92 22.00 127.44 21.50Q127.96 20.99 128.23 20.26L128.23 20.26L132.88 21.13Q132.42 22.70 131.28 23.89Q130.13 25.08 128.41 25.73Q126.70 26.38 124.46 26.38ZM141.99 26.38L141.99 26.38Q139.68 26.38 137.90 25.72Q136.13 25.06 135.00 23.80Q133.87 22.55 133.55 20.77L133.55 20.77L138.31 19.95Q138.69 21.28 139.63 21.95Q140.57 22.62 142.14 22.62L142.14 22.62Q143.60 22.62 144.45 22.06Q145.30 21.51 145.30 20.65L145.30 20.65Q145.30 19.90 144.70 19.42Q144.09 18.94 142.84 18.69L142.84 18.69L139.54 18.00Q136.78 17.44 135.41 16.08Q134.04 14.72 134.04 12.58L134.04 12.58Q134.04 10.74 135.05 9.41Q136.06 8.09 137.85 7.37Q139.65 6.65 142.07 6.65L142.07 6.65Q144.33 6.65 145.99 7.28Q147.65 7.90 148.67 9.05Q149.70 10.19 150.04 11.75L150.04 11.75L145.49 12.55Q145.20 11.58 144.37 10.95Q143.54 10.33 142.14 10.33L142.14 10.33Q140.88 10.33 140.02 10.86Q139.17 11.39 139.17 12.26L139.17 12.26Q139.17 12.99 139.72 13.49Q140.28 13.99 141.63 14.26L141.63 14.26L145.06 14.94Q147.83 15.51 149.18 16.78Q150.53 18.05 150.53 20.10L150.53 20.10Q150.53 21.98 149.44 23.39Q148.35 24.80 146.42 25.59Q144.50 26.38 141.99 26.38ZM149.88 6.89L161.21 6.89L161.21 10.81L149.88 10.81L149.88 6.89ZM152.51 20.86L152.51 2.35L157.64 2.35L157.64 20.41Q157.64 21.32 158.04 21.75Q158.44 22.19 159.38 22.19L159.38 22.19Q159.67 22.19 160.20 22.11Q160.73 22.04 161.01 21.97L161.01 21.97L161.74 25.81Q160.89 26.07 160.04 26.17Q159.20 26.27 158.43 26.27L158.43 26.27Q155.56 26.27 154.03 24.87Q152.51 23.47 152.51 20.86L152.51 20.86Z"/></g>
        
      </svg>
    