
      <svg data-logo="logo" xmlns="http://www.w3.org/2000/svg" viewBox="0 0 245 43.2">
        <g id="logogram" transform="translate(0, 1.1000000000000014) rotate(0) "><path d="M37.5569 2.04585C38.4821 1.08338 39.7385 0.542663 41.0469 0.542664C46.9335 0.542664 52.4811 0.542667 57.9442 0.542678C68.932 0.542701 74.4342 14.3629 66.6646 22.4456L49.7407 40.0517C48.9637 40.86 47.6352 40.2875 47.6352 39.1444V23.6376L49.591 21.6029C51.145 19.9864 50.0444 17.2223 47.8468 17.2223H22.9684L37.5569 2.04585Z" fill="#3A04FF"/><path d="M33.0467 38.8142C32.1215 39.7767 30.8651 40.3174 29.5567 40.3174C23.6701 40.3174 18.1225 40.3174 12.6594 40.3174C1.67159 40.3173 -3.83061 26.4972 3.93897 18.4144L20.8629 0.808361C21.6399 8.48472e-05 22.9684 0.57254 22.9684 1.71562L22.9684 17.2223L21.0126 19.2571C19.4586 20.8737 20.5592 23.6377 22.7568 23.6377L47.6352 23.6376L33.0467 38.8142Z" fill="#3A04FF"/></g>
        <g id="logotype" transform="translate(77, 7.500000000000002)"><path fill="#07071c" d="M32.43 28.45L30.04 28.45Q29.64 28.45 29.52 28.08L29.52 28.08L25.84 19.17L22.12 27.87Q21.94 28.27 21.74 28.36Q21.54 28.45 21.16 28.45L21.16 28.45L18.75 28.45Q18.55 28.45 18.43 28.36Q18.32 28.27 18.24 28.07L18.24 28.07L9.64 7.38Q9.45 6.95 9.10 6.66Q8.76 6.37 8.37 6.19Q7.98 6.02 7.62 5.93Q7.26 5.84 7.06 5.80L7.06 5.80Q6.95 5.79 6.78 5.75Q6.61 5.70 6.45 5.67Q6.28 5.64 6.16 5.61Q6.03 5.59 6 5.59L6 5.59Q5.87 5.59 5.87 5.46L5.87 5.46L5.87 4.72Q5.87 4.59 6 4.59L6 4.59L16.96 4.59Q17.06 4.59 17.07 4.63Q17.09 4.67 17.09 4.72L17.09 4.72L17.09 5.46Q17.09 5.49 17.06 5.54Q17.04 5.59 16.96 5.59L16.96 5.59L16.66 5.59Q16.01 5.59 15.65 5.74Q15.28 5.89 15.09 6.11Q14.90 6.33 14.86 6.58Q14.82 6.83 14.82 7.03L14.82 7.03Q14.82 7.40 14.92 7.71Q15.03 8.03 15.11 8.38L15.11 8.38L21.07 22.74Q21.16 22.90 21.39 22.90L21.39 22.90Q21.49 22.90 21.54 22.85Q21.59 22.80 21.64 22.72L21.64 22.72L24.51 15.95L20.88 7.21Q20.66 6.70 20.21 6.30Q19.76 5.90 19.35 5.80L19.35 5.80Q19.12 5.72 18.82 5.65Q18.52 5.59 18.43 5.59L18.43 5.59Q18.30 5.59 18.30 5.46L18.30 5.46L18.30 4.72Q18.30 4.59 18.43 4.59L18.43 4.59L34.21 4.59Q34.31 4.59 34.32 4.64Q34.34 4.69 34.34 4.72L34.34 4.72L34.34 5.46Q34.34 5.50 34.32 5.55Q34.31 5.59 34.21 5.59L34.21 5.59L33.59 5.59Q32.99 5.59 32.54 5.75Q32.08 5.92 31.72 6.27Q31.35 6.62 31.04 7.15Q30.74 7.68 30.44 8.39L30.44 8.39L28.40 13.14L32.36 22.69Q32.45 22.85 32.68 22.85L32.68 22.85Q32.84 22.85 32.93 22.67L32.93 22.67L39.55 7.15Q39.75 6.68 39.75 6.37L39.75 6.37Q39.75 5.94 39.38 5.76Q39.00 5.59 37.99 5.59L37.99 5.59L36.96 5.59Q36.83 5.59 36.83 5.46L36.83 5.46L36.83 4.72Q36.83 4.69 36.85 4.64Q36.86 4.59 36.96 4.59L36.96 4.59L44.85 4.59Q44.95 4.59 44.96 4.64Q44.98 4.69 44.98 4.72L44.98 4.72L44.98 5.46Q44.98 5.50 44.96 5.55Q44.95 5.59 44.85 5.59L44.85 5.59L44.07 5.59Q43.67 5.59 43.37 5.75Q43.07 5.90 42.81 6.23Q42.56 6.55 42.32 7.03Q42.08 7.51 41.81 8.16L41.81 8.16L33.39 27.87Q33.21 28.27 33.01 28.36Q32.81 28.45 32.43 28.45L32.43 28.45ZM27.05 9.94L28.40 6.82Q28.51 6.55 28.54 6.42Q28.56 6.29 28.56 6.12L28.56 6.12Q28.56 5.59 27.43 5.59L27.43 5.59Q26.97 5.59 26.67 5.70Q26.37 5.80 26.20 5.96Q26.02 6.12 25.96 6.32Q25.89 6.52 25.89 6.70L25.89 6.70Q25.89 6.88 25.94 7.08Q25.99 7.28 26.11 7.62Q26.24 7.96 26.46 8.51Q26.69 9.06 27.05 9.94L27.05 9.94ZM41.73 20.25L41.73 20.25Q41.73 18.69 42.42 17.26Q43.11 15.83 44.27 14.74Q45.44 13.64 46.98 12.99Q48.52 12.34 50.23 12.34L50.23 12.34Q52.03 12.34 53.64 12.96Q55.25 13.57 56.47 14.64Q57.69 15.71 58.40 17.17Q59.11 18.62 59.11 20.31L59.11 20.31Q59.11 22.04 58.46 23.53Q57.80 25.01 56.64 26.11Q55.48 27.20 53.88 27.83Q52.27 28.45 50.38 28.45L50.38 28.45Q48.51 28.45 46.92 27.81Q45.34 27.17 44.18 26.07Q43.03 24.96 42.38 23.47Q41.73 21.97 41.73 20.25ZM45.98 19.20L45.98 19.20Q45.98 20.10 46.12 21.05Q46.25 22.01 46.51 22.91Q46.78 23.82 47.19 24.61Q47.59 25.41 48.16 26.02Q48.72 26.62 49.44 26.97Q50.15 27.32 51.05 27.32L51.05 27.32Q52.03 27.32 52.73 26.81Q53.44 26.31 53.89 25.49Q54.35 24.68 54.57 23.67Q54.78 22.65 54.78 21.64L54.78 21.64Q54.78 20.83 54.63 19.92Q54.48 19.02 54.18 18.13Q53.89 17.24 53.45 16.43Q53.02 15.62 52.45 14.99Q51.88 14.37 51.17 14.00Q50.47 13.64 49.64 13.64L49.64 13.64Q48.71 13.64 48.02 14.15Q47.33 14.65 46.88 15.46Q46.43 16.26 46.21 17.25Q45.98 18.24 45.98 19.20ZM61.54 15.00L67.04 12.41Q67.11 12.38 67.18 12.34Q67.26 12.31 67.29 12.31L67.29 12.31Q67.57 12.31 67.57 12.71L67.57 12.71L67.57 15.53Q67.57 15.58 67.58 15.66Q67.59 15.73 67.67 15.73L67.67 15.73Q67.75 15.73 67.80 15.67Q67.85 15.62 67.90 15.57L67.90 15.57Q68.20 15.17 68.58 14.68Q68.95 14.19 69.37 13.76Q69.80 13.32 70.24 13.03Q70.69 12.74 71.12 12.74L71.12 12.74Q71.42 12.74 71.90 12.91Q72.39 13.08 72.84 13.30Q73.30 13.52 73.62 13.76Q73.95 14.00 73.95 14.15L73.95 14.15Q73.95 14.30 73.80 14.71Q73.65 15.12 73.42 15.53Q73.20 15.95 72.94 16.27Q72.68 16.59 72.47 16.59L72.47 16.59L72.44 16.59Q72.14 16.50 71.83 16.35Q71.52 16.21 71.21 16.07Q70.89 15.93 70.57 15.84Q70.24 15.75 69.91 15.75L69.91 15.75Q69.41 15.75 68.98 15.96Q68.55 16.16 68.24 16.49Q67.94 16.81 67.75 17.21Q67.57 17.61 67.57 17.97L67.57 17.97L67.57 24.98Q67.57 25.46 67.78 25.78Q67.99 26.11 68.31 26.31Q68.63 26.52 69.02 26.63Q69.41 26.74 69.78 26.80Q70.14 26.87 70.44 26.91Q70.74 26.95 70.89 27.02L70.89 27.02Q71.06 27.09 71.06 27.49L71.06 27.49Q71.06 27.97 70.89 28L70.89 28L61.31 28Q61.15 27.97 61.15 27.49L61.15 27.49Q61.15 27.09 61.31 27.02L61.31 27.02Q61.53 26.92 61.93 26.86Q62.33 26.80 62.72 26.63Q63.12 26.46 63.42 26.08Q63.72 25.71 63.72 24.98L63.72 24.98L63.72 16.99Q63.72 16.59 63.50 16.37Q63.29 16.15 62.96 16.03Q62.62 15.91 62.24 15.84Q61.86 15.76 61.51 15.67L61.51 15.67Q61.41 15.63 61.35 15.57Q61.30 15.52 61.30 15.33L61.30 15.33Q61.30 15.25 61.35 15.17Q61.40 15.08 61.54 15.00L61.54 15.00ZM83.95 27.50L83.95 27.50Q83.95 27.73 83.91 27.87Q83.88 28 83.78 28L83.78 28L75.11 28Q74.95 27.97 74.95 27.50L74.95 27.50Q74.95 27.07 75.11 27.00L75.11 27.00Q75.33 26.90 75.73 26.85Q76.13 26.79 76.53 26.61Q76.92 26.44 77.22 26.07Q77.52 25.69 77.52 24.96L77.52 24.96L77.52 5.37Q77.52 4.97 77.31 4.75Q77.09 4.53 76.76 4.41Q76.43 4.29 76.04 4.22Q75.66 4.14 75.31 4.04L75.31 4.04Q75.21 4.01 75.16 3.95Q75.10 3.89 75.10 3.71L75.10 3.71Q75.10 3.63 75.15 3.55Q75.20 3.46 75.35 3.38L75.35 3.38L80.84 0.79Q80.91 0.76 80.98 0.72Q81.06 0.69 81.09 0.69L81.09 0.69Q81.37 0.69 81.37 1.09L81.37 1.09L81.37 17.57Q81.37 18.07 81.56 18.19Q81.76 18.30 82.04 18.30L82.04 18.30Q82.40 18.30 82.95 18.08Q83.50 17.86 84.12 17.51Q84.74 17.16 85.37 16.73Q85.99 16.30 86.48 15.87Q86.97 15.45 87.28 15.09Q87.60 14.74 87.60 14.54L87.60 14.54Q87.60 14.20 87.28 14.09Q86.97 13.97 86.58 13.90Q86.19 13.82 85.87 13.71Q85.56 13.59 85.56 13.27L85.56 13.27Q85.56 13.04 85.77 12.88Q85.99 12.73 86.24 12.73L86.24 12.73L93.23 12.73Q93.97 12.73 93.97 13.11L93.97 13.11Q93.97 13.37 93.59 13.55Q93.21 13.72 92.65 13.89Q92.08 14.05 91.46 14.28Q90.84 14.50 90.37 14.87L90.37 14.87L85.61 18.59Q85.61 18.72 85.72 18.88Q85.84 19.04 85.92 19.12L85.92 19.12L92.25 25.79Q92.68 26.24 93.20 26.49Q93.73 26.74 94.19 26.90Q94.65 27.07 94.96 27.19Q95.27 27.30 95.27 27.50L95.27 27.50Q95.27 27.70 95.24 27.85Q95.20 28 95.00 28L95.00 28L85.96 28Q85.84 28 85.81 27.87Q85.79 27.73 85.79 27.50L85.79 27.50Q85.79 27.09 85.96 27.00L85.96 27.00Q86.12 26.92 86.30 26.87Q86.49 26.82 86.63 26.73Q86.77 26.64 86.86 26.49Q86.95 26.34 86.95 26.06L86.95 26.06Q86.95 25.88 86.72 25.57Q86.49 25.26 86.24 25.00L86.24 25.00L81.61 20.08Q81.61 20.06 81.59 20.05L81.59 20.05L81.57 20.05Q81.47 20.05 81.42 20.30Q81.37 20.55 81.37 20.86L81.37 20.86L81.37 24.96Q81.37 25.69 81.67 26.07Q81.97 26.44 82.37 26.61Q82.77 26.79 83.17 26.85Q83.57 26.90 83.78 27.00L83.78 27.00Q83.95 27.07 83.95 27.50ZM96.84 28L96.84 28Q96.80 28 96.75 27.96Q96.70 27.92 96.70 27.87L96.70 27.87L96.70 27.14Q96.70 27.00 96.84 27.00L96.84 27.00Q97.02 27.00 97.25 27.00Q97.48 27.00 97.71 26.99Q97.93 26.97 98.11 26.95Q98.30 26.94 98.40 26.89L98.40 26.89Q98.81 26.69 99.08 26.36Q99.34 26.02 99.48 25.59Q99.63 25.16 99.67 24.65Q99.72 24.13 99.72 23.55L99.72 23.55L99.72 6.97Q99.72 6.52 99.37 6.24Q99.01 5.97 98.54 5.83Q98.06 5.69 97.57 5.64Q97.09 5.59 96.84 5.59L96.84 5.59Q96.75 5.59 96.73 5.54Q96.70 5.49 96.70 5.46L96.70 5.46L96.70 4.72Q96.70 4.69 96.73 4.64Q96.75 4.59 96.84 4.59L96.84 4.59L104.36 4.59L118.67 20.43Q118.75 20.51 118.78 20.55Q118.82 20.60 118.87 20.60L118.87 20.60Q118.93 20.60 118.95 20.55Q118.97 20.50 118.97 20.45L118.97 20.45L118.97 10.58Q118.97 8.94 118.85 7.95Q118.73 6.97 118.42 6.44Q118.10 5.92 117.57 5.75Q117.04 5.59 116.21 5.59L116.21 5.59L115.36 5.59Q115.28 5.59 115.26 5.54Q115.23 5.49 115.23 5.46L115.23 5.46L115.23 4.72Q115.23 4.69 115.26 4.64Q115.28 4.59 115.36 4.59L115.36 4.59L124.49 4.59Q124.59 4.59 124.61 4.64Q124.63 4.69 124.63 4.72L124.63 4.72L124.63 5.46Q124.63 5.49 124.60 5.54Q124.58 5.59 124.49 5.59L124.49 5.59Q124.16 5.59 123.64 5.72Q123.12 5.85 122.62 6.10Q122.12 6.35 121.76 6.72Q121.41 7.08 121.41 7.55L121.41 7.55L121.41 27.19Q121.41 27.47 121.27 27.66Q121.14 27.85 120.93 27.97Q120.73 28.08 120.48 28.14Q120.24 28.20 120.05 28.20L120.05 28.20Q119.71 28.20 119.27 28.06Q118.83 27.92 118.40 27.44L118.40 27.44L102.73 10.05Q102.61 9.94 102.56 9.91Q102.51 9.89 102.43 9.89L102.43 9.89Q102.35 9.89 102.35 10.05L102.35 10.05L102.35 24.88Q102.35 25.34 102.57 25.68Q102.80 26.02 103.14 26.27Q103.49 26.51 103.92 26.65Q104.34 26.79 104.75 26.87Q105.15 26.95 105.48 26.98Q105.80 27.00 105.97 27.00L105.97 27.00Q106.05 27.00 106.08 27.07L106.08 27.07Q106.10 27.10 106.10 27.14L106.10 27.14L106.10 27.87Q106.10 27.90 106.07 27.95Q106.05 28 105.97 28L105.97 28L96.84 28ZM126.64 21.28L126.64 21.28Q126.64 19.33 127.19 17.70Q127.74 16.06 128.77 14.87Q129.80 13.67 131.28 13.01Q132.77 12.34 134.66 12.34L134.66 12.34Q135.23 12.34 135.67 12.42Q136.12 12.49 136.50 12.62Q136.87 12.74 137.19 12.92Q137.52 13.09 137.85 13.29L137.85 13.29Q138.23 13.49 138.72 14.00Q139.21 14.52 139.64 15.20Q140.07 15.88 140.37 16.65Q140.67 17.42 140.67 18.14L140.67 18.14Q140.67 18.37 140.58 18.65Q140.49 18.92 140.27 18.92L140.27 18.92L130.48 18.92Q130.31 18.92 130.25 19.22Q130.19 19.52 130.19 19.95L130.19 19.95Q130.19 21.41 130.62 22.55Q131.04 23.68 131.76 24.47Q132.47 25.26 133.40 25.67Q134.33 26.07 135.36 26.07L135.36 26.07Q136.01 26.07 136.60 25.90Q137.20 25.73 137.75 25.44Q138.30 25.16 138.78 24.81Q139.26 24.46 139.69 24.12L139.69 24.12Q139.79 24.08 139.82 24.08L139.82 24.08Q139.87 24.08 139.96 24.17L139.96 24.17Q140.11 24.30 140.26 24.47Q140.40 24.65 140.49 24.76L140.49 24.76Q140.54 24.81 140.54 24.86L140.54 24.86Q140.54 24.91 140.47 24.98L140.47 24.98Q139.92 25.63 139.13 26.25Q138.33 26.87 137.42 27.36Q136.52 27.85 135.57 28.15Q134.63 28.45 133.78 28.45L133.78 28.45Q132.07 28.45 130.74 27.83Q129.41 27.20 128.50 26.19Q127.59 25.18 127.12 23.89Q126.64 22.60 126.64 21.28ZM130.96 17.64L136.39 17.64Q136.82 17.64 136.82 17.26L136.82 17.26Q136.82 16.61 136.61 16.04Q136.40 15.47 136.02 15.03Q135.64 14.59 135.10 14.34Q134.56 14.09 133.90 14.09L133.90 14.09Q133.10 14.09 132.50 14.43Q131.90 14.77 131.49 15.25Q131.07 15.73 130.87 16.25Q130.66 16.76 130.66 17.13L130.66 17.13Q130.66 17.41 130.74 17.52Q130.83 17.64 130.96 17.64L130.96 17.64ZM145.86 27.90L145.86 27.90Q145.71 27.90 145.59 27.98Q145.47 28.07 145.37 28.17Q145.26 28.28 145.16 28.37Q145.06 28.45 144.93 28.45L144.93 28.45L144.33 28.45Q144.30 28.45 144.23 27.97Q144.16 27.49 144.09 26.81Q144.01 26.14 143.96 25.42Q143.91 24.70 143.91 24.21L143.91 24.21Q143.91 23.95 144.11 23.87Q144.30 23.80 144.51 23.80L144.51 23.80Q144.63 23.80 144.77 23.88Q144.91 23.97 145.03 24.09Q145.16 24.21 145.26 24.35Q145.36 24.48 145.41 24.58L145.41 24.58Q145.69 25.19 145.97 25.69Q146.26 26.19 146.62 26.54Q146.99 26.89 147.48 27.08Q147.98 27.27 148.68 27.27L148.68 27.27Q149.21 27.27 149.54 27.09Q149.87 26.90 150.06 26.61Q150.24 26.31 150.30 25.92Q150.36 25.54 150.36 25.13L150.36 25.13Q150.36 24.30 149.86 23.73Q149.36 23.15 148.62 22.65Q147.88 22.16 147.01 21.64Q146.14 21.13 145.40 20.45Q144.66 19.77 144.16 18.83Q143.67 17.89 143.67 16.51L143.67 16.51Q143.67 15.71 144.16 14.96Q144.66 14.20 145.46 13.62Q146.26 13.04 147.24 12.69Q148.23 12.34 149.21 12.34L149.21 12.34Q149.72 12.34 150.25 12.44Q150.77 12.53 151.21 12.64Q151.65 12.76 151.96 12.88Q152.26 12.99 152.35 13.04L152.35 13.04Q152.46 13.13 152.54 13.30Q152.61 13.47 152.64 13.86Q152.66 14.24 152.67 14.88Q152.68 15.52 152.68 16.54L152.68 16.54Q152.68 16.83 152.47 16.95Q152.26 17.08 152.07 17.08L152.07 17.08Q151.88 17.08 151.71 17.01Q151.53 16.94 151.48 16.79L151.48 16.79Q151.29 16.28 151.04 15.76Q150.79 15.23 150.46 14.81Q150.14 14.39 149.71 14.13Q149.28 13.87 148.71 13.87L148.71 13.87Q148.38 13.87 148.05 13.96Q147.72 14.04 147.45 14.28Q147.18 14.52 147.03 14.93Q146.87 15.35 146.87 16.00L146.87 16.00Q146.87 16.56 147.39 17.04Q147.92 17.52 148.70 18.01Q149.48 18.50 150.40 19.07Q151.32 19.63 152.10 20.36Q152.88 21.09 153.40 22.05Q153.92 23.00 153.92 24.30L153.92 24.30Q153.92 25.26 153.43 26.03Q152.93 26.80 152.15 27.34Q151.37 27.87 150.41 28.16Q149.46 28.45 148.55 28.45L148.55 28.45Q148.08 28.45 147.62 28.37Q147.15 28.28 146.77 28.17Q146.39 28.07 146.14 27.98Q145.89 27.90 145.86 27.90ZM157.95 24.48L157.95 15.20L156.70 15.20Q156.47 15.20 156.34 15.08Q156.21 14.97 156.19 14.83L156.19 14.83Q156.19 14.75 156.22 14.65Q156.26 14.55 156.31 14.52L156.31 14.52Q156.64 14.30 157.03 14.01Q157.42 13.72 157.80 13.41Q158.18 13.09 158.55 12.78Q158.91 12.46 159.19 12.20L159.19 12.20Q159.36 12.01 159.65 11.65Q159.94 11.28 160.31 10.93Q160.69 10.57 161.12 10.29Q161.55 10.02 162.00 10.02L162.00 10.02Q162.10 10.02 162.23 10.09Q162.36 10.15 162.36 10.25L162.36 10.25Q162.36 10.37 162.31 10.61Q162.25 10.85 162.17 11.15Q162.08 11.45 161.98 11.78Q161.88 12.11 161.80 12.43L161.80 12.43Q161.80 12.56 161.84 12.64Q161.88 12.73 162.07 12.74L162.07 12.74L166.30 12.74Q166.57 12.74 166.66 12.83Q166.76 12.93 166.81 13.08L166.81 13.08Q166.85 13.16 166.88 13.42Q166.91 13.67 166.95 13.98Q166.98 14.29 167.01 14.59Q167.03 14.90 167.03 15.10L167.03 15.10Q167.03 15.20 166.90 15.20L166.90 15.20L161.90 15.20Q161.82 15.20 161.81 15.23Q161.80 15.27 161.80 15.35L161.80 15.35L161.80 23.60Q161.80 24.13 161.93 24.53Q162.07 24.93 162.27 25.19Q162.48 25.46 162.75 25.59Q163.01 25.73 163.28 25.73L163.28 25.73Q164.04 25.73 164.52 25.50Q165.00 25.28 165.35 25.01Q165.70 24.75 165.97 24.52Q166.23 24.30 166.57 24.30L166.57 24.30Q166.80 24.30 166.84 24.48Q166.88 24.66 166.88 24.76L166.88 24.76Q166.88 24.98 166.82 25.10Q166.76 25.23 166.73 25.29L166.73 25.29Q166.71 25.33 166.55 25.58Q166.38 25.83 166.10 26.17Q165.82 26.52 165.41 26.92Q165.00 27.32 164.51 27.66Q164.01 28 163.42 28.22Q162.83 28.45 162.18 28.45L162.18 28.45Q161.29 28.45 160.51 28.12Q159.73 27.78 159.16 27.23Q158.60 26.67 158.27 25.96Q157.95 25.24 157.95 24.48L157.95 24.48Z"/></g>
        
      </svg>
    